<svg width="660" height="509" viewBox="0 0 660 509" fill="none" xmlns="http://www.w3.org/2000/svg">
<path d="M380.651 154.067H357.791L305.908 63.9775H199.914V154.067H0V225.845H51.7123C62.0719 215.661 75.0856 210.079 88.9555 210.079C102.825 210.079 115.839 215.661 126.199 225.845H273.801C284.161 215.661 297.175 210.079 311.044 210.079C324.914 210.079 337.928 215.661 348.288 225.845H400V176.002C399.829 163.859 391.267 154.067 380.651 154.067ZM229.195 151.815V97.5653H290.154L321.404 151.815H229.195Z" fill="#FCFEFF"/>
<path d="M0 275.395H31.8493C31.8493 262.469 35.1027 250.13 41.1815 239.555H0V275.395Z" fill="#FCFEFF"/>
<path d="M145.976 275.395H253.852C253.852 262.567 257.106 250.13 263.185 239.555H136.644C142.722 250.13 145.976 262.469 145.976 275.395Z" fill="#FCFEFF"/>
<path d="M367.98 275.395H399.829V239.555H358.647C364.726 250.13 367.98 262.469 367.98 275.395Z" fill="#FCFEFF"/>
<path d="M88.9558 223.789C76.199 223.789 64.6407 229.86 56.5072 239.555C48.7161 248.857 43.8359 261.49 43.8359 275.395C43.8359 303.89 64.0414 327 88.9558 327C113.87 327 134.076 303.89 134.076 275.395C134.076 261.49 129.281 248.857 121.404 239.555C113.185 229.762 101.713 223.789 88.9558 223.789ZM88.9558 297.623C78.1681 297.623 69.4353 287.635 69.4353 275.297C69.4353 262.958 78.1681 252.97 88.9558 252.97C99.7435 252.97 108.476 262.958 108.476 275.297C108.391 287.635 99.6579 297.623 88.9558 297.623Z" fill="#FCFEFF"/>
<path d="M310.873 223.789C298.116 223.789 286.644 229.86 278.425 239.555C270.548 248.857 265.753 261.49 265.753 275.395C265.753 303.89 285.959 327 310.873 327C335.788 327 355.993 303.89 355.993 275.395C355.993 261.49 351.199 248.857 343.322 239.555C335.188 229.762 323.63 223.789 310.873 223.789ZM310.873 297.623C300.086 297.623 291.353 287.635 291.353 275.297C291.353 262.958 300.086 252.97 310.873 252.97C321.661 252.97 330.394 262.958 330.394 275.297C330.479 287.635 321.661 297.623 310.873 297.623Z" fill="#FCFEFF"/>
<path d="M4.36559 135.56C4.4512 136.931 4.62243 138.595 4.79367 140.358H187.927V47.1348C177.311 30.1941 166.009 12.7637 150.085 2.77552C147.259 1.01289 144.177 -0.455961 141.009 0.13158C137.585 0.817044 134.931 3.85267 132.02 6.20284C123.116 13.2533 111.386 12.8616 100.684 10.7073C90.0676 8.65092 79.28 5.12568 68.6635 6.8883C57.7902 8.74884 47.5163 16.0931 36.643 14.6242C34.5882 14.3305 32.5334 13.7429 30.4786 14.0367C27.9101 14.3305 25.5985 15.8973 23.5437 17.7578C15.8382 24.6124 11.1293 35.7757 11.2149 47.0369C11.2149 53.9895 13.0128 60.942 11.7286 67.7967C10.4444 74.3575 6.42038 79.9392 5.30737 86.598C3.76627 95.9007 8.21832 105.301 7.61901 114.8C7.19093 121.752 3.85189 128.509 4.36559 135.56Z" fill="#00BC35"/>
<path d="M57.3636 359.818C57.0606 356.485 55.7121 353.894 53.3182 352.045C50.9545 350.167 47.5758 349.227 43.1818 349.227C40.2727 349.227 37.8485 349.606 35.9091 350.364C33.9697 351.121 32.5152 352.167 31.5455 353.5C30.5758 354.803 30.0758 356.303 30.0455 358C29.9848 359.394 30.2576 360.621 30.8636 361.682C31.5 362.742 32.4091 363.682 33.5909 364.5C34.803 365.288 36.2576 365.985 37.9545 366.591C39.6515 367.197 41.5606 367.727 43.6818 368.182L51.6818 370C56.2879 371 60.3485 372.333 63.8636 374C67.4091 375.667 70.3788 377.652 72.7727 379.955C75.197 382.258 77.0303 384.909 78.2727 387.909C79.5152 390.909 80.1515 394.273 80.1818 398C80.1515 403.879 78.6667 408.924 75.7273 413.136C72.7879 417.348 68.5606 420.576 63.0455 422.818C57.5606 425.061 50.9394 426.182 43.1818 426.182C35.3939 426.182 28.6061 425.015 22.8182 422.682C17.0303 420.348 12.5303 416.803 9.31818 412.045C6.10606 407.288 4.45455 401.273 4.36364 394H25.9091C26.0909 397 26.8939 399.5 28.3182 401.5C29.7424 403.5 31.697 405.015 34.1818 406.045C36.697 407.076 39.6061 407.591 42.9091 407.591C45.9394 407.591 48.5152 407.182 50.6364 406.364C52.7879 405.545 54.4394 404.409 55.5909 402.955C56.7424 401.5 57.3333 399.833 57.3636 397.955C57.3333 396.197 56.7879 394.697 55.7273 393.455C54.6667 392.182 53.0303 391.091 50.8182 390.182C48.6364 389.242 45.8485 388.379 42.4545 387.591L32.7273 385.318C24.6667 383.47 18.3182 380.485 13.6818 376.364C9.04545 372.212 6.74242 366.606 6.77273 359.545C6.74242 353.788 8.28788 348.742 11.4091 344.409C14.5303 340.076 18.8485 336.697 24.3636 334.273C29.8788 331.848 36.1667 330.636 43.2273 330.636C50.4394 330.636 56.697 331.864 62 334.318C67.3333 336.742 71.4697 340.152 74.4091 344.545C77.3485 348.939 78.8485 354.03 78.9091 359.818H57.3636ZM124.136 426.318C116.773 426.318 110.455 424.803 105.182 421.773C99.9394 418.742 95.9091 414.53 93.0909 409.136C90.2727 403.712 88.8636 397.439 88.8636 390.318C88.8636 383.167 90.2727 376.894 93.0909 371.5C95.9394 366.076 99.9848 361.848 105.227 358.818C110.5 355.788 116.788 354.273 124.091 354.273C130.545 354.273 136.167 355.439 140.955 357.773C145.773 360.106 149.53 363.409 152.227 367.682C154.955 371.924 156.394 376.909 156.545 382.636H135.773C135.348 379.061 134.136 376.258 132.136 374.227C130.167 372.197 127.591 371.182 124.409 371.182C121.833 371.182 119.576 371.909 117.636 373.364C115.697 374.788 114.182 376.909 113.091 379.727C112.03 382.515 111.5 385.97 111.5 390.091C111.5 394.212 112.03 397.697 113.091 400.545C114.182 403.364 115.697 405.5 117.636 406.955C119.576 408.379 121.833 409.091 124.409 409.091C126.47 409.091 128.288 408.652 129.864 407.773C131.47 406.894 132.788 405.606 133.818 403.909C134.848 402.182 135.5 400.091 135.773 397.636H156.545C156.333 403.394 154.894 408.424 152.227 412.727C149.591 417.03 145.879 420.379 141.091 422.773C136.333 425.136 130.682 426.318 124.136 426.318ZM167.92 425V355.182H189.511V367.909H190.239C191.511 363.303 193.587 359.879 196.466 357.636C199.345 355.364 202.693 354.227 206.511 354.227C207.542 354.227 208.602 354.303 209.693 354.455C210.784 354.576 211.799 354.773 212.739 355.045V374.364C211.678 374 210.284 373.712 208.557 373.5C206.86 373.288 205.345 373.182 204.011 373.182C201.375 373.182 198.996 373.773 196.875 374.955C194.784 376.106 193.133 377.727 191.92 379.818C190.739 381.879 190.148 384.303 190.148 387.091V425H167.92ZM238.852 426.182C234.398 426.182 230.443 425.439 226.989 423.955C223.564 422.439 220.852 420.167 218.852 417.136C216.883 414.076 215.898 410.242 215.898 405.636C215.898 401.758 216.58 398.485 217.943 395.818C219.307 393.152 221.186 390.985 223.58 389.318C225.973 387.652 228.731 386.394 231.852 385.545C234.973 384.667 238.307 384.076 241.852 383.773C245.822 383.409 249.019 383.03 251.443 382.636C253.867 382.212 255.625 381.621 256.716 380.864C257.837 380.076 258.398 378.97 258.398 377.545V377.318C258.398 374.985 257.595 373.182 255.989 371.909C254.383 370.636 252.216 370 249.489 370C246.549 370 244.186 370.636 242.398 371.909C240.61 373.182 239.473 374.939 238.989 377.182L218.489 376.455C219.095 372.212 220.655 368.424 223.17 365.091C225.716 361.727 229.201 359.091 233.625 357.182C238.08 355.242 243.428 354.273 249.67 354.273C254.125 354.273 258.231 354.803 261.989 355.864C265.746 356.894 269.019 358.409 271.807 360.409C274.595 362.379 276.746 364.803 278.261 367.682C279.807 370.561 280.58 373.848 280.58 377.545V425H259.67V415.273H259.125C257.883 417.636 256.292 419.636 254.352 421.273C252.443 422.909 250.186 424.136 247.58 424.955C245.004 425.773 242.095 426.182 238.852 426.182ZM245.716 411.636C248.11 411.636 250.261 411.152 252.17 410.182C254.11 409.212 255.655 407.879 256.807 406.182C257.958 404.455 258.534 402.455 258.534 400.182V393.545C257.898 393.879 257.125 394.182 256.216 394.455C255.337 394.727 254.367 394.985 253.307 395.227C252.246 395.47 251.155 395.682 250.034 395.864C248.913 396.045 247.837 396.212 246.807 396.364C244.716 396.697 242.928 397.212 241.443 397.909C239.989 398.606 238.867 399.515 238.08 400.636C237.322 401.727 236.943 403.03 236.943 404.545C236.943 406.848 237.761 408.606 239.398 409.818C241.064 411.03 243.17 411.636 245.716 411.636ZM294.17 451.182V355.182H316.17V367.136H316.852C317.761 365.015 319.049 362.97 320.716 361C322.413 359.03 324.564 357.424 327.17 356.182C329.807 354.909 332.958 354.273 336.625 354.273C341.473 354.273 346.004 355.545 350.216 358.091C354.458 360.636 357.883 364.561 360.489 369.864C363.095 375.167 364.398 381.924 364.398 390.136C364.398 398.045 363.14 404.667 360.625 410C358.14 415.333 354.777 419.333 350.534 422C346.322 424.667 341.64 426 336.489 426C332.973 426 329.928 425.424 327.352 424.273C324.777 423.121 322.61 421.606 320.852 419.727C319.125 417.848 317.792 415.833 316.852 413.682H316.398V451.182H294.17ZM315.943 390.091C315.943 393.848 316.443 397.121 317.443 399.909C318.473 402.697 319.943 404.864 321.852 406.409C323.792 407.924 326.11 408.682 328.807 408.682C331.534 408.682 333.852 407.924 335.761 406.409C337.67 404.864 339.11 402.697 340.08 399.909C341.08 397.121 341.58 393.848 341.58 390.091C341.58 386.333 341.08 383.076 340.08 380.318C339.11 377.561 337.67 375.424 335.761 373.909C333.883 372.394 331.564 371.636 328.807 371.636C326.08 371.636 323.761 372.379 321.852 373.864C319.943 375.348 318.473 377.47 317.443 380.227C316.443 382.985 315.943 386.273 315.943 390.091ZM397.182 425L371.727 331.909H383.182L402.636 407.727H403.545L423.364 331.909H436.091L455.909 407.727H456.818L476.273 331.909H487.727L462.273 425H450.636L430.091 350.818H429.364L408.818 425H397.182ZM514.364 426.636C509.939 426.636 505.924 425.803 502.318 424.136C498.712 422.439 495.848 420 493.727 416.818C491.606 413.606 490.545 409.727 490.545 405.182C490.545 401.182 491.333 397.939 492.909 395.455C494.485 392.939 496.591 390.97 499.227 389.545C501.864 388.121 504.773 387.061 507.955 386.364C511.167 385.636 514.394 385.061 517.636 384.636C521.879 384.091 525.318 383.682 527.955 383.409C530.621 383.106 532.561 382.606 533.773 381.909C535.015 381.212 535.636 380 535.636 378.273V377.909C535.636 373.424 534.409 369.939 531.955 367.455C529.53 364.97 525.848 363.727 520.909 363.727C515.788 363.727 511.773 364.848 508.864 367.091C505.955 369.333 503.909 371.727 502.727 374.273L492.545 370.636C494.364 366.394 496.788 363.091 499.818 360.727C502.879 358.333 506.212 356.667 509.818 355.727C513.455 354.758 517.03 354.273 520.545 354.273C522.788 354.273 525.364 354.545 528.273 355.091C531.212 355.606 534.045 356.682 536.773 358.318C539.53 359.955 541.818 362.424 543.636 365.727C545.455 369.03 546.364 373.455 546.364 379V425H535.636V415.545H535.091C534.364 417.061 533.152 418.682 531.455 420.409C529.758 422.136 527.5 423.606 524.682 424.818C521.864 426.03 518.424 426.636 514.364 426.636ZM516 417C520.242 417 523.818 416.167 526.727 414.5C529.667 412.833 531.879 410.682 533.364 408.045C534.879 405.409 535.636 402.636 535.636 399.727V389.909C535.182 390.455 534.182 390.955 532.636 391.409C531.121 391.833 529.364 392.212 527.364 392.545C525.394 392.848 523.47 393.121 521.591 393.364C519.742 393.576 518.242 393.758 517.091 393.909C514.303 394.273 511.697 394.864 509.273 395.682C506.879 396.47 504.939 397.667 503.455 399.273C502 400.848 501.273 403 501.273 405.727C501.273 409.455 502.652 412.273 505.409 414.182C508.197 416.061 511.727 417 516 417ZM576.67 331.909V425H565.943V331.909H576.67ZM616.864 426.636C612.439 426.636 608.424 425.803 604.818 424.136C601.212 422.439 598.348 420 596.227 416.818C594.106 413.606 593.045 409.727 593.045 405.182C593.045 401.182 593.833 397.939 595.409 395.455C596.985 392.939 599.091 390.97 601.727 389.545C604.364 388.121 607.273 387.061 610.455 386.364C613.667 385.636 616.894 385.061 620.136 384.636C624.379 384.091 627.818 383.682 630.455 383.409C633.121 383.106 635.061 382.606 636.273 381.909C637.515 381.212 638.136 380 638.136 378.273V377.909C638.136 373.424 636.909 369.939 634.455 367.455C632.03 364.97 628.348 363.727 623.409 363.727C618.288 363.727 614.273 364.848 611.364 367.091C608.455 369.333 606.409 371.727 605.227 374.273L595.045 370.636C596.864 366.394 599.288 363.091 602.318 360.727C605.379 358.333 608.712 356.667 612.318 355.727C615.955 354.758 619.53 354.273 623.045 354.273C625.288 354.273 627.864 354.545 630.773 355.091C633.712 355.606 636.545 356.682 639.273 358.318C642.03 359.955 644.318 362.424 646.136 365.727C647.955 369.03 648.864 373.455 648.864 379V425H638.136V415.545H637.591C636.864 417.061 635.652 418.682 633.955 420.409C632.258 422.136 630 423.606 627.182 424.818C624.364 426.03 620.924 426.636 616.864 426.636ZM618.5 417C622.742 417 626.318 416.167 629.227 414.5C632.167 412.833 634.379 410.682 635.864 408.045C637.379 405.409 638.136 402.636 638.136 399.727V389.909C637.682 390.455 636.682 390.955 635.136 391.409C633.621 391.833 631.864 392.212 629.864 392.545C627.894 392.848 625.97 393.121 624.091 393.364C622.242 393.576 620.742 393.758 619.591 393.909C616.803 394.273 614.197 394.864 611.773 395.682C609.379 396.47 607.439 397.667 605.955 399.273C604.5 400.848 603.773 403 603.773 405.727C603.773 409.455 605.152 412.273 607.909 414.182C610.697 416.061 614.227 417 618.5 417Z" fill="white"/>
</svg>
